<svg width="292" height="234" viewBox="0 0 292 234" fill="none" xmlns="http://www.w3.org/2000/svg">
<g clip-path="url(#clip0_76_224)">
<path opacity="0.1" d="M171.248 39.5448C152.772 38.8974 135.172 32.8859 118.368 26.3076C101.565 19.7293 84.9216 12.4401 66.8879 8.9553C55.2889 6.7136 42.0226 6.39705 32.6789 12.6646C23.6834 18.7077 20.7772 29.1104 19.2156 38.7736C18.0395 46.0426 17.3486 53.6914 20.5717 60.4971C22.807 65.2222 26.778 69.1934 29.5215 73.7344C39.0765 89.4809 32.3249 108.899 21.9705 124.275C17.1174 131.489 11.4792 138.375 7.73366 146.047C3.98817 153.719 2.25245 162.522 5.52975 170.355C8.78137 178.124 16.5264 183.949 24.9138 188.05C41.9541 196.38 62.0262 198.763 81.6129 200.113C124.957 203.103 168.53 201.808 211.989 200.513C228.073 200.032 244.225 199.546 260.046 197.039C268.833 195.647 277.903 193.439 284.283 188.104C292.38 181.333 294.387 169.866 288.962 161.376C279.859 147.135 254.705 143.598 248.333 128.312C244.833 119.901 248.43 110.531 253.517 102.727C264.434 85.9903 282.73 71.3056 283.695 52.1749C284.358 39.0326 275.559 25.876 261.959 19.6573C247.705 13.1164 227.933 13.9452 217.421 24.7335C206.59 35.8499 187.56 40.1146 171.248 39.5448Z" fill="#FB6900"/>
<path d="M124.312 198.703L26.5982 198.222L16.889 175.267L51.2208 172.755L45.2372 147.587L113.141 138.715L48.1177 115.93L53.8615 114.554L158.418 131.748L152.66 171.025L144.43 192.611L124.312 198.703Z" fill="#FB6900"/>
<path d="M28.0969 188.608C28.0969 188.608 34.092 187.641 37.689 191.911C37.689 191.911 35.0512 194.006 29.3759 191.106L28.0969 188.608Z" fill="#FB6900"/>
<path d="M27.4688 188.513C27.4688 188.513 23.6434 193.258 25.5276 198.541C25.5276 198.541 28.645 197.284 28.9847 190.878L27.4688 188.513Z" fill="#FB6900"/>
<path d="M24.0316 180.711C24.0316 180.711 26.4296 176.277 36.0218 182.484C36.0218 182.484 34.7428 185.465 30.5063 185.224C26.2698 184.982 25.1507 183.048 24.0316 180.711Z" fill="#FB6900"/>
<path d="M23.4122 180.392C23.4122 180.392 18.4363 179.817 17.9539 191.298C17.9539 191.298 21.1084 191.957 23.3494 188.326C25.5904 184.694 24.6712 182.657 23.4122 180.392Z" fill="#FB6900"/>
<path d="M20.5145 171.232C20.5145 171.232 23.3122 163.417 33.4639 168.976C33.4639 168.976 31.1458 176.148 21.5537 173.891L20.5145 171.232Z" fill="#FB6900"/>
<path d="M17.3971 159.549C17.3971 159.549 22.6728 151.653 32.0251 158.974C32.0251 158.974 28.7478 166.386 18.1964 162.358L17.3971 159.549Z" fill="#FB6900"/>
<path d="M16.278 148.43C16.278 148.43 22.4329 141.175 31.6939 148.43C31.6939 148.43 25.8587 154.795 16.278 150.283V148.43Z" fill="#FB6900"/>
<path d="M15.3188 137.63C15.3188 137.63 21.5537 130.056 30.4264 137.227C30.4264 137.227 23.3922 143.915 15.3188 139.403V137.63Z" fill="#FB6900"/>
<path d="M15.8783 128.042C15.8783 128.042 22.4443 118.292 30.7461 124.899C30.7461 124.899 23.7119 133.279 15.8783 129.895V128.042Z" fill="#FB6900"/>
<path d="M17.3971 116.842C17.3971 116.842 24.3514 107.173 32.4247 114.586C32.4247 114.586 24.1915 122.965 17.3971 118.614V116.842Z" fill="#FB6900"/>
<path d="M19.7152 106.83C19.7152 106.83 27.9484 97.7427 35.1311 101.363C35.1311 101.363 26.5524 111.014 19.3555 109.242L19.7152 106.83Z" fill="#FB6900"/>
<path d="M22.5929 97.3398C22.5929 97.3398 32.0937 86.209 37.6206 89.9269C37.6206 89.9269 30.6206 98.5599 21.9192 99.4232L22.5929 97.3398Z" fill="#FB6900"/>
<path d="M26.7466 86.3328C26.7466 86.3328 35.0626 77.2451 41.1376 79.5012C41.1376 79.5012 34.0235 88.9284 25.6304 89.1701L26.7466 86.3328Z" fill="#FB6900"/>
<path d="M30.5064 76.0365C30.5064 76.0365 39.6988 67.3344 43.6955 68.8654C43.6955 68.8654 37.061 78.5343 30.1067 77.9703L30.5064 76.0365Z" fill="#FB6900"/>
<path d="M34.1833 66.5287C34.1833 66.5287 42.0968 56.1317 46.4161 56.9374C46.4161 56.9374 41.6172 66.2064 34.1833 67.5848V66.5287Z" fill="#FB6900"/>
<path d="M38.1743 53.7087C38.1743 53.7087 45.1686 45.7405 48.9483 45.7577C48.9483 45.7577 43.4271 56.4051 37.886 56.3072L38.1743 53.7087Z" fill="#FB6900"/>
<path d="M40.5381 45.1735L47.2954 28.5752C47.2954 28.5752 47.6323 43.5793 39.6788 48.2527L40.5381 45.1735Z" fill="#FB6900"/>
<path d="M43.2816 26.8687C43.2816 26.8687 44.4007 13.007 43.6813 11.879C43.6813 11.879 48.5116 23.404 43.236 32.9924L43.2816 26.8687Z" fill="#FB6900"/>
<path d="M20.2519 171.048C20.2519 171.048 13.2462 166.671 8.70996 177.379C8.70996 177.379 14.9448 181.552 21.0769 173.779L20.2519 171.048Z" fill="#FB6900"/>
<path d="M17.1716 159.103C17.1716 159.103 8.57865 155.152 4.41064 166.332C4.41064 166.332 11.048 170.936 17.9538 161.929L17.1716 159.103Z" fill="#FB6900"/>
<path d="M15.8784 149.095C15.8784 149.095 9.72348 141.84 0.462524 149.095C0.462524 149.095 6.29773 155.46 15.8784 150.948V149.095Z" fill="#FB6900"/>
<path d="M15.1076 137.63C15.1076 137.63 8.87271 130.056 0 137.227C0 137.227 7.03422 143.915 15.1076 139.403V137.63Z" fill="#FB6900"/>
<path d="M15.8783 128.318C15.8783 128.318 11.5048 117.397 1.99829 122.093C1.99829 122.093 7.13692 131.777 15.4901 130.131L15.8783 128.318Z" fill="#FB6900"/>
<path d="M17.9481 116.787C17.9481 116.787 13.6002 105.676 3.95959 110.827C3.95959 110.827 9.86331 121.011 17.5199 118.502L17.9481 116.787Z" fill="#FB6900"/>
<path d="M20.6431 106.885C20.6431 106.885 18.9302 94.7039 10.9368 93.6132C10.9368 93.6132 12.6325 106.459 19.5668 109.081L20.6431 106.885Z" fill="#FB6900"/>
<path d="M22.7956 97.3628C22.7956 97.3628 22.1275 82.6868 15.5187 82.1745C15.5187 82.1745 15.7414 93.314 22.0505 99.4405L22.7956 97.3628Z" fill="#FB6900"/>
<path d="M27.4317 85.9213C27.4317 85.9213 25.4619 73.7171 19.1528 72.2265C19.1528 72.2265 19.935 84.045 26.8065 88.9169L27.4317 85.9213Z" fill="#FB6900"/>
<path d="M31.2543 76.1372C31.2543 76.1372 31.1887 63.4237 27.3347 61.5561C27.3347 61.5561 24.9452 73.0667 30.1381 77.7602L31.2543 76.1372Z" fill="#FB6900"/>
<path d="M34.4773 66.3848C34.4773 66.3848 33.9378 53.2943 29.9468 51.4497C29.9468 51.4497 28.5822 61.8093 33.8807 67.2423L34.4773 66.3848Z" fill="#FB6900"/>
<path d="M38.731 54.7533C38.731 54.7533 38.7082 44.1059 35.8591 41.6081C35.8591 41.6081 33.0271 53.2713 37.2437 56.8943L38.731 54.7533Z" fill="#FB6900"/>
<path d="M40.2041 44.6498L37.4321 26.9292C37.4321 26.9292 33.6666 41.4499 40.3354 47.8498L40.2041 44.6498Z" fill="#FB6900"/>
<path d="M40.7437 27.0356C40.7437 27.0356 33.6296 15.1221 33.7752 13.7984C33.7752 13.7984 34.5317 26.2846 43.4815 32.5032L40.7437 27.0356Z" fill="#FB6900"/>
<path d="M41.5773 23.5163C41.5773 23.5163 34.8628 6.5956 31.8253 5.22583C31.8253 5.22583 41.4174 10.1409 42.1368 23.0328L41.5773 23.5163Z" fill="#FB6900"/>
<path d="M37.8517 56.408L37.3921 56.267C43.0589 37.6398 44.472 25.7637 41.3745 22.7853L41.7028 22.4343C44.9887 25.5767 43.6555 37.3233 37.8517 56.408Z" fill="#444053"/>
<path d="M22.2474 100.022L21.568 99.7772C22.1704 98.0707 22.8184 96.3384 23.4978 94.6319C29.413 79.7717 34.4488 65.9474 37.6776 55.3346L38.2686 55.0468C35.0341 65.6798 30.0867 80.0336 24.1659 94.9139C23.4893 96.5887 22.8441 98.3125 22.2474 100.022Z" fill="#444053"/>
<path d="M36.5443 202.547C36.4529 202.446 27.269 192.021 20.8657 174.222C17.1138 163.802 15.0257 152.848 14.6794 141.768C14.2397 127.918 17.1231 112.453 22.0619 98.4045L22.5986 99.0376C11.5106 130.568 15.9155 157.587 21.7593 173.857C28.0941 191.494 37.1752 201.805 37.2637 201.908L36.5443 202.547Z" fill="#444053"/>
<path d="M180.061 180.412C180.061 180.412 173.589 188.375 178.727 200.412L127.056 223.002L122.097 224.049L119.813 213.977L121.34 201.267V194.32L180.061 180.412Z" fill="#D5D6DB"/>
<path d="M16.889 175.267L88.4074 162.125L183.172 177.342L124.312 198.703L16.889 175.267Z" fill="#FB6900"/>
<path d="M16.889 175.267L88.4074 162.125L183.172 177.342L124.312 198.703L16.889 175.267Z" fill="#FB6900"/>
<path d="M16.8889 175.264C16.8889 175.264 10.2001 188.038 17.9081 199.836L123.964 223.002C123.964 223.002 117.381 212.826 124.303 198.703L16.8889 175.264Z" fill="#FB6900"/>
<path opacity="0.1" d="M16.8889 175.264C16.8889 175.264 10.2001 188.038 17.9081 199.836L123.964 223.002C123.964 223.002 117.381 212.826 124.303 198.703L16.8889 175.264Z" fill="black"/>
<path opacity="0.1" d="M20.0491 179.693C20.0491 179.693 16.2266 189.039 20.0491 195.088V179.693Z" fill="black"/>
<path d="M123.964 223.002L183.172 197.534C183.172 197.534 186.484 198.254 184.343 200.7C182.202 203.146 125.106 225.448 125.106 225.448L17.9081 199.836L123.964 223.002Z" fill="#FB6900"/>
<path opacity="0.1" d="M123.964 223.002L183.172 197.534C183.172 197.534 186.484 198.254 184.343 200.7C182.202 203.146 125.106 225.448 125.106 225.448L17.9081 199.836L123.964 223.002Z" fill="black"/>
<path opacity="0.1" d="M119.111 201.275C119.111 201.275 113.401 208.182 119.111 218.541V201.275Z" fill="black"/>
<path opacity="0.1" d="M146.753 201.158L121.143 209.771L121.233 210.044L146.843 201.431L146.753 201.158Z" fill="black"/>
<path opacity="0.1" d="M151.882 200.301L121.135 212.087L121.236 212.356L151.984 200.57L151.882 200.301Z" fill="black"/>
<path opacity="0.1" d="M156.593 200.26L121.306 214.819L121.414 215.086L156.701 200.526L156.593 200.26Z" fill="black"/>
<path opacity="0.1" d="M161.716 199.013L121.718 217.226L121.836 217.489L161.834 199.276L161.716 199.013Z" fill="black"/>
<path opacity="0.1" d="M166.02 199.019L122.035 218.399L122.149 218.663L166.134 199.283L166.02 199.019Z" fill="black"/>
<path opacity="0.1" d="M175.434 197.408L122.698 220.367L122.811 220.631L175.547 197.672L175.434 197.408Z" fill="black"/>
<path opacity="0.3" d="M43.4585 176.671L93.7029 166.024L124.312 171.923L83.1402 185.304L43.4585 176.671Z" fill="white"/>
<path d="M183.172 177.342C183.172 177.342 185.77 178.398 184.246 180.029C182.721 181.661 124.304 198.703 124.304 198.703L183.172 177.342Z" fill="#FB6900"/>
<path d="M208.406 152.735C208.406 152.735 201.937 160.694 207.075 172.735L155.404 195.324L150.445 196.377L148.161 186.306L149.711 173.598V166.643L208.406 152.735Z" fill="#D5D6DB"/>
<path d="M45.2372 147.587L116.753 134.447L211.521 149.664L152.66 171.025L45.2372 147.587Z" fill="#3A3768"/>
<path d="M45.2257 147.587C45.2257 147.587 38.5341 160.361 46.242 172.159L152.298 195.324C152.298 195.324 145.717 185.14 152.649 171.022L45.2257 147.587Z" fill="#3A3768"/>
<path opacity="0.1" d="M45.2257 147.587C45.2257 147.587 38.5341 160.361 46.242 172.159L152.298 195.324C152.298 195.324 145.717 185.14 152.649 171.022L119.111 163.704L45.2257 147.587Z" fill="black"/>
<path opacity="0.1" d="M48.3945 152.015C48.3945 152.015 44.5748 161.359 48.3945 167.411V152.015Z" fill="black"/>
<path d="M152.309 195.324L211.52 169.857C211.52 169.857 214.829 170.576 212.688 173.022C210.547 175.468 153.451 197.77 153.451 197.77L46.2534 172.159L152.309 195.324Z" fill="#3A3768"/>
<path opacity="0.1" d="M152.309 195.324L211.52 169.857C211.52 169.857 214.829 170.576 212.688 173.022C210.547 175.468 153.451 197.77 153.451 197.77L46.2534 172.159L152.309 195.324Z" fill="black"/>
<path opacity="0.1" d="M147.456 173.598C147.456 173.598 141.746 180.504 147.456 190.864V173.598Z" fill="black"/>
<path opacity="0.1" d="M175.1 173.484L149.49 182.097L149.581 182.37L175.191 173.757L175.1 173.484Z" fill="black"/>
<path opacity="0.1" d="M180.233 172.626L149.486 184.412L149.587 184.681L180.335 172.895L180.233 172.626Z" fill="black"/>
<path opacity="0.1" d="M184.94 172.58L149.653 187.14L149.761 187.406L185.048 172.847L184.94 172.58Z" fill="black"/>
<path opacity="0.1" d="M190.066 171.334L150.068 189.547L150.186 189.809L190.184 171.596L190.066 171.334Z" fill="black"/>
<path opacity="0.1" d="M194.366 171.337L150.381 190.716L150.495 190.98L194.48 171.6L194.366 171.337Z" fill="black"/>
<path opacity="0.1" d="M203.782 169.725L151.046 192.685L151.16 192.949L203.895 169.989L203.782 169.725Z" fill="black"/>
<path opacity="0.45" d="M71.8066 148.994L122.051 138.346L152.66 144.246L111.488 157.627L71.8066 148.994Z" fill="white"/>
<path d="M211.52 149.664C211.52 149.664 214.115 150.72 212.594 152.349C211.072 153.978 152.66 171.022 152.66 171.022L211.52 149.664Z" fill="#3A3768"/>
<path d="M211.089 121.072C211.089 121.072 204.618 135.365 209.756 147.403L158.084 163.661L153.137 164.717L150.853 154.646L152.38 141.935V134.98L211.089 121.072Z" fill="#D5D6DB"/>
<path d="M47.9292 115.927L119.448 102.784L214.215 118.001L155.352 139.362L47.9292 115.927Z" fill="#FB6900"/>
<path d="M47.9292 115.924C47.9292 115.924 41.229 128.698 48.9369 140.496L154.993 163.661C154.993 163.661 148.409 153.477 155.341 139.362L47.9292 115.924Z" fill="#FB6900"/>
<path opacity="0.1" d="M47.9292 115.924C47.9292 115.924 41.229 128.698 48.9369 140.496L154.993 163.661C154.993 163.661 148.409 153.477 155.341 139.362L47.9292 115.924Z" fill="black"/>
<path opacity="0.1" d="M51.0896 120.352C51.0896 120.352 47.267 129.699 51.0896 135.748V120.352Z" fill="black"/>
<path d="M155.004 163.661L214.212 144.525C214.212 144.525 217.524 145.244 215.383 147.69C213.242 150.136 156.146 166.107 156.146 166.107L48.9482 140.496L155.004 163.661Z" fill="#FB6900"/>
<path opacity="0.1" d="M155.004 163.661L214.212 144.525C214.212 144.525 217.524 145.244 215.383 147.69C213.242 150.136 156.146 166.107 156.146 166.107L48.9482 140.496L155.004 163.661Z" fill="black"/>
<path opacity="0.1" d="M150.151 141.935C150.151 141.935 144.441 148.841 150.151 159.201V141.935Z" fill="black"/>
<path opacity="0.1" d="M177.796 141.821L152.186 150.433L152.276 150.706L177.886 142.094L177.796 141.821Z" fill="black"/>
<path opacity="0.1" d="M182.927 140.964L152.179 152.75L152.281 153.019L183.029 141.233L182.927 140.964Z" fill="black"/>
<path opacity="0.1" d="M187.631 140.92L152.344 155.479L152.452 155.745L187.739 141.186L187.631 140.92Z" fill="black"/>
<path opacity="0.1" d="M192.761 139.671L152.763 157.884L152.881 158.146L192.879 139.933L192.761 139.671Z" fill="black"/>
<path opacity="0.1" d="M197.063 139.676L153.078 159.056L153.192 159.32L197.177 139.94L197.063 139.676Z" fill="black"/>
<path opacity="0.1" d="M206.478 138.066L153.742 161.026L153.855 161.29L206.591 138.331L206.478 138.066Z" fill="black"/>
<path opacity="0.3" d="M74.4988 117.331L124.743 106.684L155.352 112.583L114.18 125.964L74.4988 117.331Z" fill="white"/>
<path d="M214.212 118.001C214.212 118.001 216.81 119.058 215.286 120.689C213.761 122.321 155.352 139.362 155.352 139.362L214.212 118.001Z" fill="#FB6900"/>
<path d="M88.6185 30.6471C88.6185 30.6471 77.7703 29.9881 79.0378 37.66C79.0378 37.66 78.7838 39.0153 80.0028 39.6312C80.0028 39.6312 80.0227 39.0556 81.1161 39.2542C81.5063 39.3217 81.9032 39.3411 82.298 39.3117C82.8302 39.275 83.3362 39.0649 83.7397 38.7132C83.7397 38.7132 86.7915 37.4413 87.979 32.4111C87.979 32.4111 88.8583 31.3147 88.8355 31.0327L86.997 31.8212C86.997 31.8212 87.6222 33.1535 87.1312 34.2614C87.1312 34.2614 87.0712 31.8701 86.7172 31.9248C86.6459 31.9248 85.7666 32.3881 85.7666 32.3881C85.7666 32.3881 86.8428 34.7104 86.0292 36.3967C86.0292 36.3967 86.3375 33.5363 85.4297 32.555L84.1393 33.3147C84.1393 33.3147 85.3983 35.7118 84.5447 37.6686C84.5447 37.6686 84.7645 34.6672 83.8681 33.4989L82.6977 34.4197C82.6977 34.4197 83.8824 36.7823 83.1602 38.4053C83.1602 38.4053 83.0659 34.9118 82.4465 34.6471C82.4465 34.6471 81.4216 35.5564 81.2674 35.9305C81.2674 35.9305 82.0782 37.6571 81.5729 38.552C81.5729 38.552 81.2674 36.224 81.0019 36.2125C81.0019 36.2125 79.9828 37.7549 79.8771 38.8024C79.9265 37.8259 80.2287 36.8794 80.7536 36.0571C80.1662 36.1691 79.6243 36.4523 79.1948 36.8715C79.1948 36.8715 79.3519 35.7808 81.0076 35.6859C81.0076 35.6859 81.8498 34.5147 82.0753 34.4456C82.0753 34.4456 80.4281 34.3046 79.4318 34.7506C79.4318 34.7506 80.3111 33.7233 82.3751 34.1751L83.517 33.2255C83.517 33.2255 81.3531 32.9377 80.4338 33.2571C80.4338 33.2571 81.493 32.3478 83.8282 33.0097L85.0871 32.2528C85.0871 32.2528 83.2401 31.8528 82.141 31.9967C82.141 31.9967 83.3 31.3665 85.4554 32.0485L86.3518 31.6428C86.3518 31.6428 85.0015 31.3751 84.6047 31.332C84.2079 31.2888 84.1879 31.1795 84.1879 31.1795C85.0449 31.0376 85.9242 31.1372 86.7286 31.4672C86.7286 31.4672 88.6556 30.768 88.6185 30.6471Z" fill="#FB6900"/>
<path opacity="0.1" d="M241.236 62.1805C241.236 62.1805 230.388 61.5215 231.655 69.1934C231.655 69.1934 231.401 70.5488 232.62 71.1646C232.62 71.1646 232.64 70.5891 233.734 70.7876C234.124 70.8536 234.521 70.8729 234.915 70.8452C235.443 70.806 235.944 70.5961 236.343 70.2466C236.343 70.2466 239.397 68.9747 240.582 63.9445C240.582 63.9445 241.461 62.8481 241.439 62.5661L239.606 63.3546C239.606 63.3546 240.231 64.687 239.74 65.7949C239.74 65.7949 239.68 63.4035 239.329 63.4582C239.258 63.4582 238.375 63.9215 238.375 63.9215C238.375 63.9215 239.452 66.2438 238.641 67.9301C238.641 67.9301 238.949 65.0697 238.039 64.0884L236.748 64.8481C236.748 64.8481 238.007 67.2452 237.154 69.202C237.154 69.202 237.373 66.2006 236.477 65.0323L235.309 65.9531C235.309 65.9531 236.491 68.3157 235.769 69.9387C235.769 69.9387 235.675 66.4452 235.055 66.1805C235.055 66.1805 234.033 67.0898 233.876 67.4639C233.876 67.4639 234.687 69.1905 234.185 70.0855C234.185 70.0855 233.876 67.7574 233.614 67.7459C233.614 67.7459 232.594 69.2884 232.489 70.3358C232.538 69.3589 232.841 68.4122 233.368 67.5905C232.78 67.7028 232.237 67.9859 231.807 68.4049C231.807 68.4049 231.966 67.3143 233.619 67.2193C233.619 67.2193 234.462 66.0481 234.687 65.9762C234.687 65.9762 233.043 65.838 232.044 66.2841C232.044 66.2841 232.923 65.2568 234.987 65.7085L236.129 64.7589C236.129 64.7589 233.962 64.4712 233.046 64.7906C233.046 64.7906 234.102 63.8812 236.44 64.5431L237.696 63.7863C237.696 63.7863 235.849 63.3863 234.75 63.5302C234.75 63.5302 235.909 62.8999 238.064 63.582L238.964 63.1762C238.964 63.1762 237.61 62.9086 237.214 62.8654C236.817 62.8223 236.797 62.7129 236.797 62.7129C237.654 62.5692 238.534 62.6688 239.338 63.0007C239.338 63.0007 241.27 62.3014 241.236 62.1805Z" fill="#FB6900"/>
<path opacity="0.1" d="M106.889 78.0422C106.889 78.0422 102.162 68.1632 96.1438 73.0322C96.1438 73.0322 94.8449 73.4696 94.9077 74.8422C94.9077 74.8422 95.4073 74.5804 95.7642 75.6394C95.8975 76.0137 96.0738 76.371 96.2894 76.7041C96.5815 77.1556 97.0114 77.499 97.5142 77.6825C97.5142 77.6825 100.103 79.7487 105.039 78.3386C105.039 78.3386 106.418 78.5775 106.644 78.4105L105.068 77.1818C105.068 77.1818 104.212 78.3818 103.018 78.4883C103.018 78.4883 105.062 77.271 104.842 76.989C104.797 76.9314 103.986 76.376 103.986 76.376C103.986 76.376 102.499 78.4566 100.643 78.5631C100.643 78.5631 103.269 77.4408 103.675 76.1602L102.39 75.3948C102.39 75.3948 100.926 77.6739 98.8159 77.8753C98.8159 77.8753 101.522 76.6063 102.096 75.248L100.732 74.6725C100.732 74.6725 99.2613 76.8652 97.5027 77.0235C97.5027 77.0235 100.483 75.2365 100.409 74.5602C100.409 74.5602 99.1214 74.1056 98.7217 74.1487C98.7217 74.1487 97.6312 75.6998 96.6035 75.6998C96.6035 75.6998 98.4677 74.2926 98.3535 74.0653C98.3535 74.0653 96.5207 73.9214 95.5558 74.353C96.4253 73.9174 97.3928 73.719 98.362 73.7775C97.9775 73.3153 97.4675 72.9763 96.8947 72.802C96.8947 72.802 97.9167 72.4106 98.8045 73.8178C98.8045 73.8178 100.232 73.9876 100.4 74.1516C100.4 74.1516 99.7181 72.638 98.8473 71.979C98.8473 71.979 100.166 72.2466 100.769 74.2811L102.153 74.8336C102.153 74.8336 101.357 72.7847 100.623 72.1372C100.623 72.1372 101.925 72.6236 102.493 75.0149L103.76 75.7516C103.76 75.7516 103.209 73.93 102.547 73.0351C102.547 73.0351 103.658 73.7487 104.117 75.976L104.908 76.5688C104.908 76.5688 104.48 75.248 104.337 74.8797C104.194 74.5113 104.266 74.4365 104.266 74.4365C104.809 75.1197 105.153 75.9417 105.259 76.8106C105.259 76.8106 106.787 78.1285 106.889 78.0422Z" fill="#FB6900"/>
<path opacity="0.1" d="M216.451 48.2239C216.451 48.2239 211.726 38.3449 205.705 43.2139C205.705 43.2139 204.409 43.6513 204.469 45.0239C204.469 45.0239 204.972 44.7649 205.325 45.821C205.459 46.1969 205.636 46.5553 205.854 46.8886C206.145 47.3393 206.574 47.6818 207.075 47.8642C207.075 47.8642 209.668 49.9303 214.601 48.5232C214.601 48.5232 215.98 48.7591 216.208 48.5922L214.641 47.3606C214.641 47.3606 213.784 48.5634 212.594 48.6699C212.594 48.6699 214.635 47.4498 214.415 47.1678C214.37 47.1102 213.559 46.5548 213.559 46.5548C213.559 46.5548 212.074 48.6354 210.216 48.7419C210.216 48.7419 212.845 47.6196 213.25 46.3419L211.946 45.5822C211.946 45.5822 210.484 47.8584 208.372 48.0627C208.372 48.0627 211.078 46.7908 211.655 45.4325L210.287 44.857C210.287 44.857 208.817 47.0527 207.061 47.2081C207.061 47.2081 210.039 45.421 209.965 44.7477C209.965 44.7477 208.68 44.2901 208.28 44.3362C208.28 44.3362 207.19 45.8843 206.159 45.8843C206.159 45.8843 208.026 44.4772 207.912 44.2498C207.912 44.2498 206.079 44.1059 205.111 44.5376C205.981 44.1018 206.948 43.9034 207.918 43.9621C207.535 43.4996 207.025 43.1604 206.453 42.9865C206.453 42.9865 207.475 42.5952 208.363 44.0023C208.363 44.0023 209.79 44.175 209.959 44.339C209.959 44.339 209.277 42.8225 208.403 42.1635C208.403 42.1635 209.722 42.434 210.324 44.48L211.712 45.0325C211.712 45.0325 210.915 42.9808 210.182 42.3333C210.182 42.3333 211.483 42.8196 212.049 45.211L213.319 45.9476C213.319 45.9476 212.765 44.129 212.103 43.2311C212.103 43.2311 213.216 43.9448 213.673 46.1721L214.464 46.7649C214.464 46.7649 214.038 45.4441 213.893 45.0757C213.747 44.7074 213.821 44.6354 213.821 44.6354C214.363 45.3193 214.706 46.1411 214.812 47.0095C214.812 47.0095 216.362 48.316 216.451 48.2239Z" fill="#FB6900"/>
<path opacity="0.1" d="M231.55 97.0895C231.55 97.0895 226.825 87.2076 220.796 92.0766C220.796 92.0766 219.5 92.514 219.56 93.8866C219.56 93.8866 220.062 93.6276 220.416 94.6837C220.548 95.0595 220.724 95.4179 220.941 95.7514C221.232 96.202 221.661 96.5445 222.163 96.7269C222.163 96.7269 224.755 98.7959 229.691 97.3859C229.691 97.3859 231.067 97.6247 231.296 97.4549L229.72 96.2262C229.72 96.2262 228.863 97.429 227.67 97.5355C227.67 97.5355 229.711 96.3154 229.491 96.0334C229.446 95.9758 228.635 95.4204 228.635 95.4204C228.635 95.4204 227.15 97.501 225.292 97.6103C225.292 97.6103 227.921 96.4852 228.327 95.2075L227.039 94.442C227.039 94.442 225.577 96.7211 223.465 96.9226C223.465 96.9226 226.171 95.6506 226.748 94.2924L225.38 93.7168C225.38 93.7168 223.91 95.9096 222.155 96.0679C222.155 96.0679 225.135 94.2809 225.061 93.6046C225.061 93.6046 223.773 93.1471 223.374 93.1931C223.374 93.1931 222.283 94.7413 221.252 94.7413C221.252 94.7413 223.119 93.3341 223.005 93.1068C223.005 93.1068 221.172 92.9629 220.205 93.3945C221.075 92.9591 222.044 92.7607 223.014 92.819C222.63 92.3558 222.12 92.0166 221.546 91.8435C221.546 91.8435 222.568 91.4492 223.456 92.8593C223.456 92.8593 224.884 93.0291 225.052 93.1931C225.052 93.1931 224.37 91.6795 223.499 91.0176C223.499 91.0176 224.818 91.2881 225.42 93.3341L226.805 93.8866C226.805 93.8866 226.009 91.8348 225.275 91.1903C225.275 91.1903 226.577 91.6737 227.142 94.0679L228.412 94.8017C228.412 94.8017 227.858 92.983 227.196 92.0852C227.196 92.0852 228.309 92.7989 228.769 95.0291L229.56 95.6046C229.56 95.6046 229.132 94.2837 228.989 93.9154C228.846 93.5471 228.918 93.4751 228.918 93.4751C229.46 94.1582 229.803 94.9804 229.908 95.8492C229.908 95.8492 231.461 97.1758 231.55 97.0895Z" fill="#FB6900"/>
<path opacity="0.1" d="M57.6527 225.655C61.2774 225.655 64.2158 225.324 64.2158 224.915C64.2158 224.507 61.2774 224.176 57.6527 224.176C54.0279 224.176 51.0895 224.507 51.0895 224.915C51.0895 225.324 54.0279 225.655 57.6527 225.655Z" fill="#FB6900"/>
<path opacity="0.1" d="M14.628 213.085C18.2527 213.085 21.1912 212.754 21.1912 212.346C21.1912 211.937 18.2527 211.606 14.628 211.606C11.0033 211.606 8.06482 211.937 8.06482 212.346C8.06482 212.754 11.0033 213.085 14.628 213.085Z" fill="#FB6900"/>
<path opacity="0.1" d="M90.4484 234.003C94.0732 234.003 97.0116 233.672 97.0116 233.263C97.0116 232.855 94.0732 232.524 90.4484 232.524C86.8237 232.524 83.8853 232.855 83.8853 233.263C83.8853 233.672 86.8237 234.003 90.4484 234.003Z" fill="#FB6900"/>
<path opacity="0.1" d="M258.51 215.819C262.135 215.819 265.074 215.488 265.074 215.079C265.074 214.671 262.135 214.34 258.51 214.34C254.886 214.34 251.947 214.671 251.947 215.079C251.947 215.488 254.886 215.819 258.51 215.819Z" fill="#FB6900"/>
<path opacity="0.1" d="M203.895 212.23C207.52 212.23 210.458 211.899 210.458 211.491C210.458 211.082 207.52 210.751 203.895 210.751C200.27 210.751 197.332 211.082 197.332 211.491C197.332 211.899 200.27 212.23 203.895 212.23Z" fill="#FB6900"/>
<path opacity="0.1" d="M168.564 229.732C172.851 229.732 176.326 229.131 176.326 228.389C176.326 227.646 172.851 227.045 168.564 227.045C164.277 227.045 160.802 227.646 160.802 228.389C160.802 229.131 164.277 229.732 168.564 229.732Z" fill="#FB6900"/>
<path d="M172.027 214.881C172.027 214.881 161.219 220.51 166.803 227.14C166.803 227.14 167.328 228.578 168.847 228.478C168.847 228.478 168.544 227.919 169.703 227.473C170.116 227.313 170.508 227.103 170.871 226.849C171.362 226.507 171.729 226.013 171.916 225.442C171.916 225.442 174.125 222.461 172.413 216.944C172.413 216.944 172.635 215.384 172.441 215.131L171.128 216.947C171.128 216.947 172.484 217.865 172.641 219.215C172.641 219.215 171.214 216.95 170.928 217.2C170.865 217.252 170.277 218.193 170.277 218.193C170.277 218.193 172.63 219.802 172.804 221.891C172.804 221.891 171.479 218.964 170.049 218.547L169.229 220.02C169.229 220.02 171.799 221.597 172.084 223.968C172.084 223.968 170.591 220.961 169.067 220.354L168.464 221.911C168.464 221.911 170.942 223.499 171.171 225.473C171.171 225.473 169.098 222.173 168.353 222.276C168.353 222.276 167.885 223.738 167.948 224.19C167.948 224.19 169.698 225.37 169.729 226.53C169.729 226.53 168.113 224.472 167.865 224.607C167.865 224.607 167.762 226.676 168.259 227.753C168.259 227.753 167.402 226.216 167.542 224.607C167.042 225.054 166.681 225.638 166.506 226.288C166.506 226.288 166.041 225.151 167.574 224.104C167.574 224.104 167.719 222.495 167.896 222.297C167.896 222.297 166.238 223.114 165.532 224.115C165.532 224.115 165.792 222.622 168.042 221.879L168.613 220.302C168.613 220.302 166.363 221.263 165.67 222.109C165.67 222.109 166.169 220.628 168.79 219.917L169.566 218.478C169.566 218.478 167.568 219.157 166.592 219.917C166.592 219.917 167.348 218.642 169.806 218.055L170.437 217.148C170.437 217.148 168.987 217.669 168.581 217.856C168.176 218.043 168.096 217.951 168.096 217.951C168.837 217.319 169.737 216.907 170.697 216.76C170.697 216.76 172.127 214.979 172.027 214.881Z" fill="#FB6900"/>
<path d="M204.107 108.571C202.24 103.458 191.962 102.977 187.503 104.281C184.334 105.21 177.654 106.258 174.086 106.784L173.854 106.563C174.317 106.425 174.328 106.085 174.271 105.581C174.238 104.918 174.247 104.253 174.3 103.59C176.486 104.275 178.433 102.655 178.433 102.655C181.003 101.504 180.312 96.5772 180.803 95.2305C181.171 94.2233 181.568 88.2896 181.745 85.3313H181.782L181.802 84.3385C181.828 83.9098 181.839 83.6594 181.839 83.6594C181.839 83.6594 182.09 76.425 182.581 74.9602C183.038 73.6135 183.409 66.828 183.466 65.7517C183.466 65.6596 183.466 65.6107 183.466 65.6107L183.429 64.9834C183.455 64.5258 183.466 64.0165 183.464 63.4812C183.464 61.0208 183.209 57.9216 183.178 57.4209C183.178 57.3489 183.178 57.2626 183.178 57.159C183.198 56.1087 183.067 50.8483 178.628 48.8598C176.992 48.1232 175.025 47.2455 173.121 46.3908C172.63 42.1175 171.508 37.8672 171.605 33.5622C171.605 32.9147 171.662 32.2672 171.725 31.6226C171.725 31.8097 171.705 31.9996 171.702 32.1982C171.702 32.6154 171.702 33.0356 171.702 33.4528C171.87 28.0687 173.889 22.6558 173.7 17.3868C173.683 17.9019 173.646 18.4199 173.597 18.9379C173.696 17.1557 173.511 15.3691 173.049 13.6459C172.878 13.0387 172.647 12.4114 172.153 12.0056C171.686 11.6788 171.151 11.4651 170.588 11.3812C169.238 11.0326 167.865 10.775 166.48 10.6099C166.27 9.96066 165.958 9.34957 165.555 8.79989C162.661 4.79418 158.373 1.0302 153.303 0.166903C150.759 -0.264747 147.833 0.0949607 146.103 1.92803C145.922 2.08906 145.752 2.26211 145.595 2.44601C144.664 3.56542 144.264 5.03591 143.311 6.15244C143.248 6.22726 143.177 6.29633 143.108 6.36827C141.241 8.0517 138.332 8.40277 136.257 9.91355C135.891 10.1848 135.548 10.486 135.232 10.8143C134.395 11.6496 133.646 12.5685 132.994 13.5567C132.06 14.8804 131.101 16.2588 130.804 17.8386C130.207 21.0041 132.346 24.0055 132.742 27.191C133.627 34.319 125.802 40.6441 127.284 47.6771C127.679 49.4049 128.552 50.9844 129.802 52.2325C126.75 55.018 124.152 57.7202 124.152 57.7202V57.8813H123.67L123.718 58.4568H123.67L123.935 61.5791L123.67 66.1258C123.67 66.1258 123.67 66.1747 123.67 66.2668V66.2898V66.4136C123.67 66.4136 123.67 66.4625 123.67 66.5546H123.687C123.775 68.2208 124.127 74.212 124.543 75.4753C125.034 76.9401 125.283 84.1745 125.283 84.1745C125.283 84.1745 125.825 94.3988 126.322 95.7513C126.819 97.1039 126.114 102.016 128.691 103.176C129.446 103.759 130.338 104.132 131.281 104.258C131.149 105.334 131.232 106.114 131.658 106.358C131.84 106.466 132.046 106.526 132.257 106.531C132.082 106.793 131.927 107.067 131.792 107.351C130.769 107.244 129.763 107.005 128.8 106.64C126.031 105.489 116.841 102.899 114.172 104.721C111.503 106.543 105.079 108.194 108.046 115.527C111.012 122.859 112.393 123.043 112.393 123.043C113.306 123.711 114.107 124.522 114.766 125.446C115.656 126.796 123.955 129.883 126.031 129.883C126.913 129.87 127.795 129.914 128.671 130.016C128.671 130.016 126.419 132.007 126.719 133.164C127.019 134.321 126.034 143.581 126.034 143.581C126.034 143.581 128.317 145.9 129.294 142.859L129.328 142.905C129.511 143.155 130.499 144.286 132.357 142.859C133.118 142.277 133.925 141.761 134.772 141.316L143.77 140.033C144.709 139.974 145.649 139.967 146.588 140.013C148.016 140.131 149.417 139.279 150.299 138.62C152.164 139.334 154.259 140.113 155.255 140.398C157.276 140.974 166.566 143.486 168.739 142.7C169.19 142.519 169.592 142.231 169.909 141.86L171.982 141.926L171.011 142.122C171.011 142.122 172.901 142.154 175.47 142.188L175.362 142.251L178.585 142.223C183.301 142.266 188.599 142.28 189.296 142.122C190.386 141.877 196.053 142.05 197.723 142.122H198.189C198.189 142.122 204.415 140.87 201.846 134.502C199.87 129.61 193.798 128.188 191.103 127.797C191.862 127.644 192.516 127.526 192.95 127.457C194.831 127.17 198.485 125.443 198.782 124.853C199.079 124.263 202.142 122.551 202.933 121.575C203.724 120.6 205.982 113.685 204.107 108.571ZM152.535 122.882L152.229 122.983L152.024 123.052L151.63 123.443C151.316 123.23 150.979 123.006 150.628 122.775C151.247 122.813 151.884 122.85 152.535 122.882Z" fill="url(#paint0_linear_76_224)"/>
<path d="M170.737 92.5399C170.737 92.5399 175.105 104.051 177.588 102.899C180.072 101.748 179.398 96.8564 179.872 95.5154C180.346 94.1744 180.871 84.0047 180.871 84.0047C180.871 84.0047 181.111 76.8106 181.585 75.3545C182.025 74.0163 182.382 67.2682 182.441 66.2064C182.441 66.1143 182.441 66.0654 182.441 66.0654L181.97 57.7201L179.304 57.0497L173.121 59.3518L172.264 64.2812L171.93 66.2064L171.787 67.0265L170.737 92.5399Z" fill="#BE6F72"/>
<path opacity="0.1" d="M172.176 90.6118C172.176 90.6118 176.344 94.0506 177.6 94.3528C178.856 94.6549 179.627 97.3369 179.627 97.3369" fill="black"/>
<path d="M136.579 93.0435C136.579 93.0435 132.211 104.554 129.728 103.403C127.244 102.252 127.918 97.36 127.444 96.019C126.97 94.678 126.445 84.5083 126.445 84.5083C126.445 84.5083 126.205 77.3142 125.731 75.8581C125.291 74.5199 124.934 67.7718 124.875 66.71C124.875 66.6179 124.875 66.569 124.875 66.569L125.348 58.2237L128.015 57.5533L134.198 59.8554L135.055 64.7848L135.389 66.71L135.531 67.5301L136.579 93.0435Z" fill="#BE6F72"/>
<path d="M165.022 31.4442H155.272V46.762H165.022V31.4442Z" fill="#3E373A"/>
<path opacity="0.1" d="M165.022 31.4442H155.272V46.762H165.022V31.4442Z" fill="black"/>
<path d="M134.866 104.508C134.866 104.508 131.535 108.2 132.771 108.871C134.007 109.541 142.003 122.108 142.003 122.108C142.003 122.108 168.267 125.368 173.22 120.476C178.174 115.584 178.074 106.845 178.074 106.845C178.074 106.845 174.094 107.708 173.66 107.239C173.226 106.77 170.842 104.508 170.842 104.508C170.842 104.508 137.15 102.448 134.866 104.508Z" fill="#4B4B5B"/>
<path opacity="0.02" d="M134.866 104.508C134.866 104.508 131.535 108.2 132.771 108.871C134.007 109.541 142.003 122.108 142.003 122.108C142.003 122.108 168.267 125.368 173.22 120.476C178.174 115.584 178.074 106.845 178.074 106.845C178.074 106.845 174.094 107.708 173.66 107.239C173.226 106.77 170.842 104.508 170.842 104.508C170.842 104.508 137.15 102.448 134.866 104.508Z" fill="black"/>
<path d="M182.147 57.841L173.583 64.7474L170.994 64.9373L170.043 65.0064L154.076 66.1862L137.518 64.9661L135.055 64.7848L131.914 64.5546L125.348 58.2237C125.348 58.2237 129.996 53.2051 134.067 49.8181C135.671 48.48 137.187 47.398 138.292 46.9721L138.48 46.9059C139.175 46.6327 139.796 46.1967 140.29 45.634C143.505 42.293 146.477 34.0485 146.477 34.0485C146.477 34.0485 160.657 26.6644 158.944 36.3506C157.231 46.0368 165.318 43.6426 165.318 43.6426L167.985 44.8685L169.038 45.3548L171.725 46.5951L177.785 49.3979C182.541 51.6051 182.147 57.841 182.147 57.841Z" fill="#BE6F72"/>
<path opacity="0.1" d="M153.411 41.9362C160.454 41.9362 166.163 36.181 166.163 29.0817C166.163 21.9823 160.454 16.2271 153.411 16.2271C146.368 16.2271 140.659 21.9823 140.659 29.0817C140.659 36.181 146.368 41.9362 153.411 41.9362Z" fill="black"/>
<path opacity="0.1" d="M182.167 66.9977H124.875C124.875 66.9057 124.875 66.8567 124.875 66.8567L125.348 58.5115C125.348 58.5115 129.996 53.4929 134.067 50.1059L170.037 48.667L171.71 46.8886L177.771 49.6915C182.53 51.8958 182.147 58.1317 182.147 58.1317C182.147 58.1317 182.798 65.3575 182.167 66.9977Z" fill="black"/>
<path d="M182.167 66.71H124.875C124.875 66.6179 124.875 66.569 124.875 66.569L125.348 58.2237C125.348 58.2237 129.996 53.2051 134.067 49.8181L170.037 48.3793L171.71 46.6009L177.771 49.4037C182.53 51.608 182.147 57.8439 182.147 57.8439C182.147 57.8439 182.798 65.0697 182.167 66.71Z" fill="#E7C7CA"/>
<path opacity="0.1" d="M144.227 43.3088C144.227 43.3088 153.265 54.9173 165.304 43.07C177.343 31.2227 166.637 69.4956 166.637 69.4956L140.659 72.6034L144.227 43.3088Z" fill="black"/>
<path d="M144.227 43.8844C144.227 43.8844 153.265 55.4929 165.304 43.6455C177.343 31.7982 166.637 70.0711 166.637 70.0711L140.659 73.179L144.227 43.8844Z" fill="#E7C7CA"/>
<path opacity="0.1" d="M169.024 45.9217L169.98 60.6237L171.005 65.5157L171.787 69.2567C171.787 69.2567 173.786 98.0333 173.215 99.4722C172.644 100.911 173.5 102.062 173.62 102.828C173.74 103.593 173.5 105.515 173.594 106.379C173.689 107.242 173.594 107.625 171.408 107.317C169.221 107.009 166.172 106.474 166.172 106.474C166.172 106.474 158.464 107.049 155.801 106.091C153.137 105.133 148.093 105.13 148.093 105.13C148.093 105.13 140.479 105.322 138.007 105.035C135.534 104.747 134.198 108.105 132.582 107.144C130.967 106.183 134.484 96.8823 135.626 94.1945C136.768 91.5068 134.104 84.6982 134.104 84.6982L137.53 65.5416L138.292 61.1993V47.5476L138.48 47.4814C139.175 47.2083 139.796 46.7723 140.29 46.2095L141.147 59.9475L167.982 60.9086V45.4469" fill="black"/>
<path d="M169.024 45.3462L169.98 60.0482L171.005 64.9402L171.787 68.6812C171.787 68.6812 173.786 97.4578 173.215 98.8966C172.644 100.335 173.5 101.487 173.62 102.252C173.74 103.017 173.5 104.94 173.594 105.803C173.689 106.666 173.594 107.049 171.408 106.741C169.221 106.433 166.172 105.898 166.172 105.898C166.172 105.898 158.464 106.474 155.801 105.515C153.137 104.557 148.093 104.554 148.093 104.554C148.093 104.554 140.479 104.747 138.007 104.459C135.534 104.171 134.198 107.53 132.582 106.568C130.967 105.607 134.484 96.3067 135.626 93.619C136.768 90.9313 134.104 84.1227 134.104 84.1227L137.53 64.9661L138.292 60.6237V46.9721L138.48 46.9059C139.175 46.6327 139.796 46.1967 140.29 45.634L141.147 59.3719L167.982 60.3331V44.8714" fill="#E7C7CA"/>
<path opacity="0.1" d="M172.11 14.6646C171.947 14.0631 171.722 13.4387 171.254 13.0358C170.806 12.7122 170.29 12.4993 169.746 12.4142C168.444 12.0691 167.12 11.8133 165.784 11.6488C165.593 11.0098 165.304 10.4049 164.927 9.85599C162.13 5.87331 157.99 2.11796 153.12 1.26905C150.571 0.823011 147.616 1.22301 145.983 3.24888C145.086 4.36253 144.701 5.83878 143.796 6.93229C142.052 9.056 138.903 9.31787 136.705 10.961C135.531 11.8243 134.681 13.0761 133.85 14.2905C132.951 15.6056 132.026 16.9753 131.74 18.5465C131.169 21.6861 133.228 24.6788 133.607 27.8471C134.464 34.9348 126.927 41.2225 128.352 48.2152C129.182 52.2929 132.919 55.1648 136.785 56.6209C138.146 57.136 139.702 57.6482 140.339 58.9662C140.624 59.5417 140.673 60.2064 140.941 60.7877C141.843 62.7273 144.81 62.8021 146.403 61.3892C147.995 59.9762 148.498 57.6914 148.686 55.559C149.451 46.2469 145.752 37.047 146.183 27.7119C146.311 24.8889 147.099 21.6861 149.608 20.4084C152.986 18.6818 157.048 21.5594 160.765 21.0098C162.524 25.3238 162.897 30.085 161.833 34.624C161.242 37.1075 160.22 39.5161 160.146 42.0772C160.034 45.9764 162.121 49.539 163.925 52.9864C164.312 53.6311 164.571 54.3455 164.688 55.09C164.716 55.8453 164.576 56.5974 164.279 57.2914C163.26 60.0568 161.502 62.6237 161.302 65.5675C161.243 65.9112 161.32 66.2643 161.516 66.5517C161.717 66.7435 161.977 66.8612 162.252 66.8855C165.336 67.4179 168.002 64.6639 169.506 61.8985C171.184 58.8441 172.161 55.4498 172.367 51.9648C172.678 46.1059 170.594 40.3419 170.723 34.4773C170.871 27.8097 173.86 21.0961 172.11 14.6646Z" fill="black"/>
<path d="M172.395 14.3768C172.233 13.7754 172.007 13.1509 171.539 12.7481C171.092 12.4245 170.576 12.2115 170.032 12.1265C168.73 11.7813 167.406 11.5256 166.069 11.361C165.878 10.722 165.589 10.1171 165.213 9.56824C162.415 5.58556 158.276 1.83021 153.405 0.981298C150.856 0.535261 147.901 0.935255 146.268 2.96113C145.372 4.07478 144.987 5.55103 144.082 6.64454C142.337 8.76825 139.188 9.03012 136.99 10.6733C135.817 11.5366 134.966 12.7883 134.135 14.0027C133.236 15.3178 132.311 16.6876 132.026 18.2588C131.455 21.3983 133.513 24.3911 133.893 27.5594C134.749 34.6471 127.213 40.9348 128.637 47.9275C129.468 52.0051 133.205 54.877 137.07 56.3331C138.432 56.8482 139.988 57.3605 140.624 58.6784C140.91 59.254 140.958 59.9187 141.227 60.5C142.129 62.4395 145.095 62.5144 146.688 61.1014C148.281 59.6885 148.783 57.4036 148.972 55.2713C149.737 45.9592 146.037 36.7593 146.468 27.4241C146.597 24.6012 147.385 21.3983 149.894 20.1206C153.271 18.394 157.334 21.2717 161.05 20.7221C162.809 25.0361 163.183 29.7973 162.118 34.3363C161.527 36.8197 160.505 39.2283 160.431 41.7894C160.32 45.6887 162.407 49.2512 164.211 52.6987C164.598 53.3433 164.857 54.0578 164.973 54.8022C165.001 55.5575 164.862 56.3097 164.565 57.0036C163.546 59.7691 161.787 62.3359 161.587 65.2798C161.529 65.6234 161.605 65.9765 161.801 66.264C162.002 66.4558 162.262 66.5734 162.538 66.5978C165.621 67.1301 168.287 64.3762 169.792 61.6108C171.469 58.5564 172.447 55.1621 172.652 51.6771C172.964 45.8182 170.88 40.0542 171.008 34.1895C171.156 27.522 174.145 20.8084 172.395 14.3768Z" fill="#3E373A"/>
<path d="M166.089 141.791L177.414 142.157L175.79 133.69L167.114 134.522L166.089 141.791Z" fill="#C3C7D9"/>
<path d="M201.18 121.725C200.418 122.683 197.469 124.41 197.184 124.986C196.898 125.561 193.378 127.288 191.568 127.575C189.758 127.863 184.052 129.112 183.004 129.783C182.253 130.266 176.227 131.797 172.267 132.646C171.194 132.902 170.109 133.099 169.015 133.236C167.302 133.331 148.558 126.905 148.558 126.905L152.172 123.164L152.372 123.095C153.394 122.747 158.116 121.138 160.736 120.373C163.688 119.509 167.114 115.961 167.114 115.961C167.114 115.961 172.156 114.235 172.824 114.042C173.492 113.849 171.111 107.328 171.111 107.328C171.111 107.328 182.053 105.797 186.335 104.499C190.618 103.202 200.515 103.682 202.322 108.767C204.129 113.852 201.954 120.767 201.18 121.725Z" fill="#4B4B5B"/>
<path d="M151.316 137.935C151.316 137.935 149.129 140.237 146.939 140.047C144.75 139.857 137.093 140.623 137.093 140.623C135.706 141.181 134.406 141.94 133.236 142.876C131.446 144.298 130.496 143.164 130.319 142.922L130.287 142.876C129.334 145.9 127.147 143.595 127.147 143.595C127.147 143.595 128.098 134.387 127.806 133.236C127.515 132.085 129.688 130.108 129.688 130.108L132.257 129.449L138.766 127.768L148.093 131.029L151.316 137.935Z" fill="#E7C7CA"/>
<path opacity="0.1" d="M132.246 129.449L130.319 142.922L130.287 142.876C129.334 145.9 127.147 143.595 127.147 143.595C127.147 143.595 128.098 134.387 127.806 133.236C127.515 132.085 129.688 130.108 129.688 130.108L132.246 129.449Z" fill="black"/>
<path opacity="0.1" d="M145.714 91.1241C145.714 91.1241 150.756 92.8506 155.135 91.1241H145.714Z" fill="black"/>
<path opacity="0.1" d="M162.926 94.3873C162.926 94.3873 165.019 95.4406 166.637 94.3873H162.926Z" fill="black"/>
<path opacity="0.1" d="M162.926 96.8852C162.926 96.8852 166.446 97.36 167.114 96.4017L162.926 96.8852Z" fill="black"/>
<path opacity="0.1" d="M161.784 102.252C161.784 102.252 168.396 101.389 170.037 100.238L161.784 102.252Z" fill="black"/>
<path opacity="0.1" d="M141.609 100.238C141.609 100.238 145.321 102.347 148.081 102.252L141.609 100.238Z" fill="black"/>
<path opacity="0.1" d="M172.264 132.646C171.192 132.902 170.106 133.099 169.013 133.236C167.3 133.331 148.555 126.905 148.555 126.905L152.169 123.164L152.369 123.095C152.94 123.501 153.408 123.849 153.742 124.114C155.315 125.362 156.834 123.731 157.405 123.731C157.976 123.731 162.923 127.855 162.923 127.855C162.923 127.855 167.491 128.911 168.253 129.869C169.015 130.827 171.679 130.637 172.153 131.308C172.296 131.515 172.313 132.024 172.264 132.646Z" fill="black"/>
<path d="M137.093 107.72C137.093 107.72 132.474 107.987 129.81 106.856C127.147 105.725 118.297 103.115 115.728 104.948C113.158 106.781 106.972 108.402 109.827 115.694C112.682 122.986 114.015 123.175 114.015 123.175C114.898 123.843 115.669 124.65 116.299 125.564C117.155 126.908 125.149 129.975 127.147 129.975C129.145 129.975 132.665 129.975 137.613 133.429C142.56 136.882 147.033 137.267 147.033 137.267C147.033 137.267 153.314 139.857 155.269 140.433C157.225 141.008 166.161 143.5 168.256 142.735C170.351 141.969 171.682 137.17 171.682 137.17C171.682 137.17 172.632 132.853 172.156 132.183C171.679 131.512 169.015 131.702 168.256 130.744C167.497 129.785 162.926 128.729 162.926 128.729C162.926 128.729 157.99 124.603 157.419 124.603C156.848 124.603 155.329 126.232 153.756 124.986C150.623 122.646 147.331 120.531 143.905 118.655C140.29 116.735 137.093 107.72 137.093 107.72Z" fill="#4B4B5B"/>
<path opacity="0.1" d="M127.806 110.502C128.629 110.333 129.479 110.357 130.291 110.573C131.102 110.789 131.853 111.192 132.485 111.748C134.769 113.668 142.454 117.521 142.454 117.521" fill="black"/>
<path opacity="0.1" d="M184.908 110.381C184.908 110.381 174.725 111.935 172.824 114.045L184.908 110.381Z" fill="black"/>
<path d="M196.613 142.157H196.164C194.554 142.099 189.099 141.926 188.048 142.157C186.812 142.444 170.443 142.157 170.443 142.157L173.643 141.486C173.643 141.486 172.455 137.29 173.209 136.942C173.209 136.942 168.927 134.099 172.156 132.18C175.384 130.26 178.864 131.069 178.864 131.069L186.969 128.301L188.525 127.768C188.525 127.768 197.66 128.249 200.133 134.58C202.605 140.911 196.613 142.157 196.613 142.157Z" fill="#E7C7CA"/>
<path opacity="0.1" d="M196.613 142.157H196.165C198.822 139.946 204.835 133.219 186.969 128.315L188.525 127.783C188.525 127.783 197.66 128.263 200.133 134.594C202.605 140.925 196.613 142.157 196.613 142.157Z" fill="black"/>
<path d="M179.818 134.698C180.094 134.698 180.318 134.472 180.318 134.194C180.318 133.916 180.094 133.69 179.818 133.69C179.542 133.69 179.318 133.916 179.318 134.194C179.318 134.472 179.542 134.698 179.818 134.698Z" fill="#4B4B5B"/>
<path d="M176.915 135.529C177.191 135.529 177.414 135.304 177.414 135.026C177.414 134.748 177.191 134.522 176.915 134.522C176.639 134.522 176.415 134.748 176.415 135.026C176.415 135.304 176.639 135.529 176.915 135.529Z" fill="#4B4B5B"/>
<g opacity="0.1">
<path opacity="0.1" d="M162.769 28.6069C162.88 25.4417 162.321 22.2889 161.13 19.3581C157.419 19.9163 153.354 17.03 149.974 18.7566C147.473 20.0343 146.688 23.2371 146.548 26.0601C146.514 26.8054 146.508 27.5508 146.522 28.2961C146.522 28.0313 146.522 27.7637 146.548 27.499C146.679 24.676 147.464 21.4731 149.974 20.1954C153.354 18.4689 157.413 21.3465 161.13 20.7969C162.139 23.2795 162.694 25.9253 162.769 28.6069Z" fill="black"/>
<path opacity="0.1" d="M134.01 28.0802C134.059 27.4532 134.046 26.8228 133.973 26.1983C133.67 23.6659 132.297 21.2458 132.048 18.7768C131.729 21.7551 133.61 24.6155 133.973 27.6371C134.01 27.7925 134.01 27.9306 134.01 28.0802Z" fill="black"/>
<path opacity="0.1" d="M149.052 53.9044C148.875 56.0396 148.375 58.3216 146.768 59.7374C145.161 61.1532 142.2 61.0755 141.307 59.136C141.021 58.5604 140.978 57.8899 140.701 57.3144C140.068 55.9964 138.509 55.4842 137.147 54.9691C133.279 53.5101 129.548 50.6526 128.717 46.5635C128.643 46.193 128.592 45.8182 128.566 45.4412C128.495 46.2978 128.546 47.1601 128.717 48.0023C129.548 52.0799 133.285 54.949 137.147 56.4079C138.509 56.923 140.068 57.4353 140.701 58.7532C140.987 59.3288 141.035 59.9935 141.307 60.5748C142.206 62.5143 145.172 62.5892 146.768 61.1762C148.364 59.7633 148.86 57.4784 149.052 55.3432C149.139 54.2194 149.168 53.0917 149.14 51.9648C149.14 52.6181 149.103 53.2627 149.052 53.9044Z" fill="black"/>
<path opacity="0.1" d="M171.102 32.8255C171.102 33.2428 171.102 33.6571 171.102 34.0715C171.262 28.7191 173.209 23.3378 173.018 18.0976C172.869 22.9436 171.211 27.8989 171.102 32.8255Z" fill="black"/>
<path opacity="0.1" d="M164.976 54.477C165.046 54.1356 165.068 53.7859 165.041 53.4382C164.926 52.6935 164.667 51.9787 164.279 51.3346C162.629 48.1692 160.748 44.9289 160.525 41.4153C160.525 41.565 160.505 41.7031 160.502 41.8642C160.388 45.7606 162.475 49.326 164.279 52.7734C164.586 53.3074 164.82 53.8804 164.976 54.477Z" fill="black"/>
<path opacity="0.1" d="M172.744 50.3131C172.531 53.7994 171.546 57.1935 169.863 60.2467C168.356 63.0122 165.692 65.7661 162.606 65.2337C162.33 65.2097 162.07 65.0909 161.87 64.897C161.812 64.8311 161.766 64.7551 161.736 64.6726C161.701 64.897 161.673 65.1244 161.656 65.3546C161.597 65.6973 161.673 66.0497 161.87 66.3359C162.07 66.5297 162.33 66.6485 162.606 66.6726C165.692 67.2049 168.356 64.451 169.863 61.6856C171.546 58.6324 172.531 55.2382 172.744 51.7519C172.778 51.0785 172.781 50.408 172.761 49.7375C172.755 49.9303 172.755 50.1202 172.744 50.3131Z" fill="black"/>
</g>
<path opacity="0.1" d="M173.209 136.942C173.209 136.942 180.434 139.998 185.199 133.236" stroke="black" stroke-miterlimit="10"/>
<path opacity="0.1" d="M174.631 142.283C174.631 142.283 180.532 138.416 188.048 142.157" stroke="black" stroke-miterlimit="10"/>
<path opacity="0.1" d="M135.132 141.405C135.132 141.405 137.61 135.771 144.227 140.067" stroke="black" stroke-miterlimit="10"/>
<path opacity="0.1" d="M127.098 58.0799L132.151 53.4756C132.151 53.4756 151.744 52.1807 152.555 58.8942C152.555 58.8942 159.5 50.9346 174.108 52.7073L180.289 57.6684L163.206 65.2251L146.605 71.0293L134.378 65.5129L127.098 58.0799Z" fill="black"/>
<path d="M127.098 58.3676L132.151 53.7634C132.151 53.7634 151.744 52.4684 152.555 59.182C152.555 59.182 159.5 51.2224 174.108 52.995L180.289 57.9561L163.206 65.5129L146.605 71.3171L134.378 65.8006L127.098 58.3676Z" fill="#D5D6DB"/>
<path opacity="0.1" d="M124.863 58.9432L127.098 85.8982L150.793 87.0982L149.766 60.2583L149.746 59.8065L124.863 58.9432Z" fill="black"/>
<path d="M124.863 58.3676L127.098 85.3227L150.793 86.5227L149.766 59.6827L149.746 59.2309L124.863 58.3676Z" fill="#FB6900"/>
<path opacity="0.1" d="M181.374 58.3676L156.931 62.0625V89.1385L180.817 85.6594L181.374 58.3676Z" fill="black"/>
<path d="M181.374 57.7921L156.931 61.487V88.5629L180.817 85.0838L181.374 57.7921Z" fill="#FB6900"/>
<path opacity="0.3" d="M175.61 64.3992L162.406 65.8783L162.695 70.4135L175.601 68.992L175.61 64.3992Z" fill="white"/>
<path d="M128.383 99.757L129.728 103.403C129.728 103.403 131.726 105.13 133.913 104.266C136.1 103.403 138.007 102.974 138.957 102.134C139.908 101.294 141.241 97.0722 141.241 97.0722C141.241 97.0722 142.574 92.4679 143.905 91.3169C145.235 90.1658 148.758 74.307 143.905 75.8581C139.051 77.4091 135.34 91.7974 135.34 91.7974C135.34 91.7974 134.484 92.8507 133.248 92.9485C132.012 93.0463 129.536 92.7557 129.06 93.8118C128.583 94.8679 126.956 97.6477 128.383 99.757Z" fill="#BE6F72"/>
<path opacity="0.1" d="M156.931 62.0597C155.68 62.3439 154.38 62.3291 153.135 62.0163C151.89 61.7035 150.735 61.1014 149.763 60.2583L150.793 87.0953C150.793 87.0953 153.22 89.7428 156.931 89.1385V62.0597Z" fill="black"/>
<path d="M156.931 61.4841C155.68 61.7684 154.38 61.7535 153.135 61.4407C151.89 61.1279 150.735 60.5259 149.763 59.6827L150.793 86.5198C150.793 86.5198 153.22 89.1672 156.931 88.5629V61.4841Z" fill="#FB6900"/>
<path opacity="0.1" d="M156.931 61.4841C155.68 61.7684 154.38 61.7535 153.135 61.4407C151.89 61.1279 150.735 60.5259 149.763 59.6827L150.793 86.5198C150.793 86.5198 153.22 89.1672 156.931 88.5629V61.4841Z" fill="black"/>
<path opacity="0.1" d="M157.502 58.4597C157.502 58.4597 167.445 55.395 170.037 55.8267L157.502 58.4597Z" fill="black"/>
<path opacity="0.1" d="M146.38 57.1216C146.38 57.1216 136.742 54.8195 135.132 55.4727L146.38 57.1216Z" fill="black"/>
<path opacity="0.1" d="M163.771 58.8424C163.771 58.8424 170.42 56.3849 172.824 57.5533L163.771 58.8424Z" fill="black"/>
<path opacity="0.1" d="M160.422 120.491C161.453 119.711 162.549 119.024 163.7 118.439C165.413 117.607 168.553 115.449 168.553 115.449" fill="black"/>
<path opacity="0.1" d="M135.132 91.1241C135.132 91.1241 130.961 94.5629 129.708 94.865C128.454 95.1672 127.681 97.8492 127.681 97.8492" fill="black"/>
<path d="M178.921 99.2448L177.591 102.899C177.591 102.899 175.593 104.626 173.403 103.763C171.214 102.899 169.312 102.471 168.359 101.63C167.405 100.79 166.075 96.5686 166.075 96.5686C166.075 96.5686 164.745 91.9643 163.411 90.8133C162.078 89.6622 158.558 73.8034 163.411 75.3545C168.265 76.9055 171.976 91.2939 171.976 91.2939C171.976 91.2939 172.832 92.3471 174.068 92.4449C175.304 92.5428 177.78 92.2521 178.256 93.3082C178.733 94.3643 180.349 97.1441 178.921 99.2448Z" fill="#BE6F72"/>
<path opacity="0.1" d="M176.589 92.5226C176.589 92.5226 179.315 94.2895 179.304 96.4017L176.589 92.5226Z" fill="black"/>
<path d="M153.457 41.306C160.5 41.306 166.209 35.5508 166.209 28.4514C166.209 21.3521 160.5 15.5969 153.457 15.5969C146.414 15.5969 140.704 21.3521 140.704 28.4514C140.704 35.5508 146.414 41.306 153.457 41.306Z" fill="#BE6F72"/>
<path d="M145.449 25.0011C146.996 24.7565 148.352 23.8501 149.831 23.3292C153.14 22.158 156.8 22.9609 160.148 24.017C161.433 24.4227 162.738 24.8803 164.085 24.8803C165.433 24.8803 166.863 24.3249 167.551 23.1537C168.185 22.0774 168.062 20.6789 167.528 19.548C166.994 18.417 166.101 17.5077 165.199 16.6502C162.23 13.8243 158.547 11.1826 154.473 11.4704C152.834 11.5883 151.267 12.1783 149.76 12.8315C147.862 13.6559 146.014 14.5938 144.227 15.6401C142.854 16.443 140.31 17.5163 139.52 18.9839C137.721 22.2904 142.651 25.4443 145.449 25.0011Z" fill="#3E373A"/>
<path opacity="0.1" d="M167.551 21.9451C166.863 23.1163 165.433 23.6717 164.085 23.6717C162.738 23.6717 161.433 23.2314 160.145 22.8256C156.797 21.7695 153.14 20.9638 149.828 22.1379C148.352 22.6587 146.993 23.5767 145.446 23.8069C143.191 24.1637 139.56 22.1839 139.166 19.666C138.723 22.5753 142.934 25.0673 145.446 24.6702C146.993 24.4256 148.352 23.5191 149.828 23.0012C153.14 21.8271 156.797 22.6328 160.145 23.6889C161.433 24.0947 162.735 24.5522 164.085 24.535C165.435 24.5177 166.863 23.9824 167.551 22.8084C167.907 22.1696 168.048 21.4311 167.95 20.7048C167.906 21.1421 167.77 21.5649 167.551 21.9451Z" fill="black"/>
<path d="M271.04 177.9C271.04 177.9 272.733 180.13 270.258 183.5C267.783 186.87 265.744 189.713 266.567 191.813C266.567 191.813 270.301 185.557 273.338 185.468C276.376 185.379 274.377 181.661 271.04 177.9Z" fill="#FB6900"/>
<path opacity="0.1" d="M271.04 177.9C271.188 178.115 271.304 178.351 271.386 178.599C274.349 182.11 275.93 185.388 273.078 185.468C270.423 185.546 267.24 190.331 266.478 191.537C266.503 191.635 266.532 191.731 266.567 191.825C266.567 191.825 270.301 185.569 273.338 185.48C276.376 185.391 274.377 181.661 271.04 177.9Z" fill="black"/>
<path d="M274.18 180.743C274.18 181.529 274.092 182.165 273.986 182.165C273.881 182.165 273.789 181.529 273.789 180.743C273.789 179.958 273.898 180.329 274.006 180.329C274.115 180.329 274.18 179.958 274.18 180.743Z" fill="#FFD037"/>
<path d="M275.262 181.681C274.58 182.055 273.983 182.283 273.932 182.188C273.881 182.093 274.392 181.71 275.074 181.324C275.756 180.939 275.488 181.221 275.539 181.324C275.591 181.428 275.948 181.304 275.262 181.681Z" fill="#FFD037"/>
<path d="M262.093 177.9C262.093 177.9 260.4 180.13 262.875 183.5C265.35 186.87 267.389 189.713 266.564 191.813C266.564 191.813 262.833 185.557 259.792 185.468C256.752 185.379 258.764 181.661 262.093 177.9Z" fill="#FB6900"/>
<path opacity="0.1" d="M262.093 177.9C261.946 178.115 261.829 178.351 261.748 178.599C258.784 182.11 257.203 185.388 260.055 185.468C262.707 185.546 265.893 190.331 266.655 191.537C266.631 191.635 266.601 191.731 266.564 191.825C266.564 191.825 262.833 185.569 259.792 185.48C256.752 185.391 258.764 181.661 262.093 177.9Z" fill="black"/>
<path d="M258.947 180.743C258.947 181.529 259.033 182.165 259.141 182.165C259.25 182.165 259.338 181.529 259.338 180.743C259.338 179.958 259.227 180.329 259.121 180.329C259.016 180.329 258.947 179.958 258.947 180.743Z" fill="#FFD037"/>
<path d="M257.868 181.681C258.55 182.055 259.147 182.283 259.198 182.188C259.25 182.093 258.739 181.71 258.056 181.324C257.374 180.939 257.643 181.221 257.591 181.324C257.54 181.428 257.183 181.304 257.868 181.681Z" fill="#FFD037"/>
<path opacity="0.1" d="M266.567 208.884C276.342 208.884 284.266 207.659 284.266 206.147C284.266 204.636 276.342 203.41 266.567 203.41C256.791 203.41 248.867 204.636 248.867 206.147C248.867 207.659 256.791 208.884 266.567 208.884Z" fill="#FB6900"/>
<path d="M275.676 188.806L275.591 189.503L275.471 190.487L275.422 190.898L275.302 191.883L275.251 192.294L275.134 193.275L273.778 204.469C273.658 205.468 272.039 206.248 270.084 206.248H263.047C261.091 206.248 259.475 205.468 259.352 204.469L257.996 193.275L257.877 192.294L257.828 191.883L257.708 190.898L257.657 190.487L257.54 189.503L257.454 188.806C257.388 188.231 258.262 187.765 259.37 187.765H273.764C274.868 187.765 275.745 188.239 275.676 188.806Z" fill="#65617D"/>
<path d="M275.591 189.503L275.474 190.487H257.66L257.54 189.503H275.591Z" fill="#9D9CB5"/>
<path d="M275.422 190.898L275.305 191.883H257.828L257.708 190.898H275.422Z" fill="#9D9CB5"/>
<path d="M275.254 192.294L275.134 193.278H257.997L257.88 192.294H275.254Z" fill="#9D9CB5"/>
</g>
<defs>
<linearGradient id="paint0_linear_76_224" x1="156.055" y1="144.436" x2="156.055" y2="-2.72881e-06" gradientUnits="userSpaceOnUse">
<stop stop-color="#808080" stop-opacity="0.25"/>
<stop offset="0.54" stop-color="#808080" stop-opacity="0.12"/>
<stop offset="1" stop-color="#808080" stop-opacity="0.1"/>
</linearGradient>
<clipPath id="clip0_76_224">
<rect width="292" height="234" fill="white"/>
</clipPath>
</defs>
</svg>
